<svg width="28" height="27" viewBox="0 0 28 27" fill="none" xmlns="http://www.w3.org/2000/svg">
<g clip-path="url(#clip0_62_1234)">
<path fill-rule="evenodd" clip-rule="evenodd" d="M25.2 22.9622C25.2 23.706 24.5093 24.3 23.7373 24.3H19.5373C19.3619 24.3042 19.1875 24.2726 19.0244 24.207C18.8614 24.1415 18.713 24.0433 18.5882 23.9185C18.4634 23.7936 18.3647 23.6446 18.298 23.4803C18.2313 23.316 18.198 23.1398 18.2 22.9622V18.9121C18.1973 18.7332 18.23 18.5555 18.2962 18.3896C18.3624 18.2236 18.4606 18.0727 18.5852 17.9458C18.7099 17.8189 18.8583 17.7185 19.0218 17.6505C19.1853 17.5825 19.3606 17.5484 19.5373 17.55H23.7373C24.5107 17.55 25.2 18.1683 25.2 18.9121V22.9622ZM23.7373 14.85H19.5373C17.2173 14.85 15.4 16.6752 15.4 18.9121V22.9622C15.4 25.1991 17.2173 27 19.5373 27H23.7373C26.0573 27 28 25.1991 28 22.9622V18.9121C28 16.6752 26.0573 14.85 23.7373 14.85ZM9.8 22.9622C9.8 23.706 9.10933 24.3 8.33733 24.3H4.13733C3.96193 24.3042 3.7875 24.2726 3.62443 24.207C3.46137 24.1415 3.31301 24.0433 3.1882 23.9185C3.0634 23.7936 2.96471 23.6446 2.89801 23.4803C2.83132 23.316 2.79798 23.1398 2.8 22.9622V18.9121C2.79733 18.7332 2.83003 18.5555 2.89619 18.3896C2.96235 18.2236 3.06063 18.0727 3.18524 17.9458C3.30985 17.8189 3.45828 17.7185 3.62179 17.6505C3.7853 17.5825 3.96059 17.5484 4.13733 17.55H8.33733C9.11067 17.55 9.8 18.1683 9.8 18.9121V22.9622ZM8.33733 14.85H4.13733C1.81733 14.85 0 16.6752 0 18.9121V22.9622C0 25.1991 1.81733 27 4.13733 27H8.33733C10.6573 27 12.6 25.1991 12.6 22.9622V18.9121C12.6 16.6752 10.6573 14.85 8.33733 14.85ZM25.2 8.11215C25.2 8.856 24.5093 9.45 23.7373 9.45H19.5373C19.3619 9.45418 19.1875 9.42255 19.0244 9.35701C18.8614 9.29146 18.713 9.19333 18.5882 9.06848C18.4634 8.94363 18.3647 8.79461 18.298 8.6303C18.2313 8.466 18.198 8.28978 18.2 8.11215V4.06215C18.1973 3.88321 18.23 3.70553 18.2962 3.53957C18.3624 3.37362 18.4606 3.22274 18.5852 3.09581C18.7099 2.96889 18.8583 2.86848 19.0218 2.80051C19.1853 2.73253 19.3606 2.69836 19.5373 2.7H23.7373C24.5107 2.7 25.2 3.3183 25.2 4.06215V8.11215ZM23.7373 0H19.5373C17.2173 0 15.4 1.8252 15.4 4.06215V8.11215C15.4 10.3491 17.2173 12.15 19.5373 12.15H23.7373C26.0573 12.15 28 10.3491 28 8.11215V4.06215C28 1.8252 26.0573 0 23.7373 0ZM9.8 8.11215C9.8 8.856 9.10933 9.45 8.33733 9.45H4.13733C3.96193 9.45418 3.7875 9.42255 3.62443 9.35701C3.46137 9.29146 3.31301 9.19333 3.1882 9.06848C3.0634 8.94363 2.96471 8.79461 2.89801 8.6303C2.83132 8.466 2.79798 8.28978 2.8 8.11215V4.06215C2.79733 3.88321 2.83003 3.70553 2.89619 3.53957C2.96235 3.37362 3.06063 3.22274 3.18524 3.09581C3.30985 2.96889 3.45828 2.86848 3.62179 2.80051C3.7853 2.73253 3.96059 2.69836 4.13733 2.7H8.33733C9.11067 2.7 9.8 3.3183 9.8 4.06215V8.11215ZM8.33733 0H4.13733C1.81733 0 0 1.8252 0 4.06215V8.11215C0 10.3491 1.81733 12.15 4.13733 12.15H8.33733C10.6573 12.15 12.6 10.3491 12.6 8.11215V4.06215C12.6 1.8252 10.6573 0 8.33733 0Z" fill="#EDA606" fill-opacity="0.53"/>
</g>
<defs>
<clipPath id="clip0_62_1234">
<rect width="28" height="27" fill="white"/>
</clipPath>
</defs>
</svg>
